<svg xmlns="http://www.w3.org/2000/svg" viewBox="0 0 190.27 155.57"><defs><style>.cls-1{fill:#ea5d60;}</style></defs><title>scriptadvertising-logo2</title><g id="Layer_2" data-name="Layer 2"><g id="Layer_1-2" data-name="Layer 1"><path class="cls-1" d="M46.14,147.1c-10.57-10.57-21.66-20.81-31.8-31.8C2.24,102.19,18.71,90.74,27.49,82L69.87,39.58C78.42,31,86.64,21.79,95.69,13.76,109.57,1.43,125.1,24,134,32.87l39,39c6.54,6.54,11.19,14.62,3.65,23.13-3.37,3.81-7.26,7.26-10.85,10.85l-38.46,38.46c-.5.5-2,1.53-2.25,2.25-.57,1.95,2.24-1.5,2.68-.91-.41-.53-5.25,0-5.91,0H42.67c-6.3,0-6.31,9.8,0,9.8h77.27c4.39,0,8.45.76,12-2,5.63-4.25,10.46-10.46,15.43-15.43l23.32-23.32c4.26-4.26,8.75-8.39,12.83-12.83,9-9.79,8.88-23.68-.11-33.41-11.47-12.41-24-24-35.95-35.95L127.31,12.35C122.4,7.45,118,2.46,110.88.68,94.43-3.47,83.21,12.38,73.06,22.54L26.25,69.35C14.77,80.83-5.91,95,1.61,113.8c3.31,8.26,12.37,15,18.48,21.1L39.21,154C43.67,158.49,50.6,151.57,46.14,147.1Z"/><path class="cls-1" d="M82.81,132.27"/><path class="cls-1" d="M86.46,93.83"/><path class="cls-1" d="M47.33,155.47h77.3a5,5,0,0,0,3.46-8.36l-18-18.64c-6.73-7-13.31-15.81-23.88-16.2-11.1-.41-17.5,7.87-24.26,15.22l-18,19.62c-4.26,4.63,2.65,11.58,6.93,6.93l14.37-15.63c5.22-5.68,12.72-17.26,21.44-16.22,7.45.89,14.42,11,19.28,16.06L121.17,154l3.46-8.36H47.33C41,145.67,41,155.47,47.33,155.47Z"/><path class="cls-1" d="M105.52,36l47.75,48.13c3.75,3.78,9.63-2,5.87-5.83L111.39,30.17c-3.75-3.78-9.63,2-5.87,5.83Z"/><path class="cls-1" d="M110.89,68.52,139.18,97c3.75,3.78,9.63-2,5.87-5.83l-28.3-28.52c-3.75-3.78-9.63,2-5.87,5.83Z"/><path class="cls-1" d="M92,49.44l10.23,10.31c3.75,3.78,9.63-2,5.87-5.83L97.84,43.62c-3.75-3.78-9.63,2-5.87,5.83Z"/><path class="cls-1" d="M33.67,104.16l6,6.09c2.21,2.23,8.09-3.59,5.87-5.83l-6-6.09c-2.21-2.23-8.09,3.59-5.87,5.83Z"/><path class="cls-1" d="M78.24,63.05l27.49,27.71c3.75,3.78,9.63-2,5.87-5.83L84.12,57.22c-3.75-3.78-9.63,2-5.87,5.83Z"/><path class="cls-1" d="M114.29,99.39l11.18,11.27c3.75,3.78,9.63-2,5.87-5.83L120.16,93.56c-3.75-3.78-9.63,2-5.87,5.83Z"/><path class="cls-1" d="M50.21,91.11l11.18,11.27c3.75,3.78,9.63-2,5.87-5.83L56.09,85.28c-3.75-3.78-9.63,2-5.87,5.83Z"/><path class="cls-1" d="M63.23,75.61,90.8,103.4c2.19,2.21,8.07-3.62,5.87-5.83L69.1,69.78c-2.19-2.21-8.07,3.62-5.87,5.83Z"/></g></g></svg>