<svg xmlns="http://www.w3.org/2000/svg" viewBox="0 0 198.88 162.61"><defs><style>.cls-1,.cls-2{fill:#fff;}.cls-2{stroke:#000;stroke-miterlimit:10;}</style></defs><title>sriptadvertising-logo</title><g id="Layer_2" data-name="Layer 2"><g id="Layer_1-2" data-name="Layer 1"><path class="cls-1" d="M48.23,153.76C37.17,142.71,25.59,132,15,120.53,2.34,106.82,19.55,94.85,28.73,85.67L73,41.37c8.94-8.94,17.53-18.59,27-27,14.51-12.88,30.74,10.7,40,20l40.78,40.78c6.83,6.83,11.69,15.28,3.82,24.18-3.52,4-7.59,7.59-11.35,11.35l-40.21,40.21c-.53.53-2.13,1.6-2.36,2.36-.6,2,2.34-1.56,2.8-1-.42-.56-5.48,0-6.18,0H44.61c-6.59,0-6.6,10.24,0,10.24h80.77c4.59,0,8.84.79,12.59-2,5.88-4.44,10.93-10.93,16.13-16.13L178.47,120c4.46-4.46,9.15-8.77,13.41-13.41,9.41-10.23,9.28-24.75-.12-34.92-12-13-25.08-25.08-37.57-37.57L133.07,12.91C127.94,7.79,123.29,2.57,115.9.71,98.7-3.63,87,12.94,76.36,23.56L27.43,72.49c-12,12-33.61,26.85-25.75,46.47C5.13,127.58,14.61,134.63,21,141l20,20C45.65,165.67,52.89,158.43,48.23,153.76Z"/><path class="cls-2" d="M86.56,138.25"/><path class="cls-2" d="M90.37,98.08"/><path class="cls-1" d="M49.47,162.51h80.8a5.18,5.18,0,0,0,3.62-8.74L115,134.28c-7-7.27-13.91-16.53-25-16.93-11.61-.43-18.29,8.23-25.35,15.91L45.85,153.77c-4.45,4.84,2.77,12.1,7.24,7.24l15-16.33c5.46-5.94,13.3-18,22.41-16.95,7.79.93,15.08,11.55,20.15,16.78l16,16.5,3.62-8.74H49.47C42.88,152.27,42.87,162.51,49.47,162.51Z"/><path class="cls-1" d="M110.29,37.62,160.2,87.93c3.92,4,10.07-2.13,6.14-6.09L116.43,31.53c-3.92-4-10.07,2.13-6.14,6.09Z"/><path class="cls-1" d="M115.9,71.62l29.58,29.82c3.92,4,10.07-2.13,6.14-6.09L122,65.53c-3.92-4-10.07,2.13-6.14,6.09Z"/><path class="cls-1" d="M96.12,51.68l10.69,10.77c3.92,4,10.07-2.13,6.14-6.09L102.26,45.59c-3.92-4-10.07,2.13-6.14,6.09Z"/><path class="cls-1" d="M35.19,108.88l6.31,6.36c2.32,2.33,8.46-3.75,6.14-6.09l-6.31-6.36c-2.32-2.33-8.46,3.75-6.14,6.09Z"/><path class="cls-1" d="M81.78,65.91l28.73,29c3.92,4,10.07-2.13,6.14-6.09l-28.73-29c-3.92-4-10.07,2.13-6.14,6.09Z"/><path class="cls-1" d="M119.46,103.88l11.68,11.78c3.92,4,10.07-2.13,6.14-6.09L125.6,97.79c-3.92-4-10.07,2.13-6.14,6.09Z"/><path class="cls-1" d="M52.48,95.23,64.17,107c3.92,4,10.07-2.13,6.14-6.09L58.62,89.14c-3.92-4-10.07,2.13-6.14,6.09Z"/><path class="cls-1" d="M66.09,79l28.82,29.05c2.29,2.31,8.43-3.78,6.14-6.09L72.23,72.94c-2.29-2.31-8.43,3.78-6.14,6.09Z"/></g></g></svg>